<mxfile host="app.diagrams.net" modified="2023-12-07T14:51:21.790Z" agent="Mozilla/5.0 (Windows NT 10.0; Win64; x64) AppleWebKit/537.36 (KHTML, like Gecko) Chrome/119.0.0.0 Safari/537.36" etag="bHO00hq0lwqhE9m7Fq2X" version="22.1.7" type="device">
  <diagram id="C5RBs43oDa-KdzZeNtuy" name="Page-1">
    <mxGraphModel dx="880" dy="446" grid="1" gridSize="10" guides="1" tooltips="1" connect="1" arrows="1" fold="1" page="1" pageScale="1" pageWidth="827" pageHeight="1169" background="#000000" math="0" shadow="0">
      <root>
        <mxCell id="WIyWlLk6GJQsqaUBKTNV-0" />
        <mxCell id="WIyWlLk6GJQsqaUBKTNV-1" parent="WIyWlLk6GJQsqaUBKTNV-0" />
        <mxCell id="wWsB43tYdhF1dsKAu8T7-9" value="" style="edgeStyle=orthogonalEdgeStyle;rounded=1;orthogonalLoop=1;jettySize=auto;html=1;labelBackgroundColor=none;strokeColor=#FFFFFF;fontColor=#FFFFFF;" parent="WIyWlLk6GJQsqaUBKTNV-1" source="wWsB43tYdhF1dsKAu8T7-1" target="wWsB43tYdhF1dsKAu8T7-8" edge="1">
          <mxGeometry relative="1" as="geometry" />
        </mxCell>
        <mxCell id="wWsB43tYdhF1dsKAu8T7-1" value="&lt;font style=&quot;font-size: 18px;&quot;&gt;Start&lt;/font&gt;" style="html=1;dashed=0;whiteSpace=wrap;shape=mxgraph.dfd.start;rounded=1;labelBackgroundColor=none;fillColor=#F45B69;strokeColor=#FFFFFF;fontColor=#FFFFFF;" parent="WIyWlLk6GJQsqaUBKTNV-1" vertex="1">
          <mxGeometry x="368.5" y="100" width="90" height="30" as="geometry" />
        </mxCell>
        <mxCell id="wWsB43tYdhF1dsKAu8T7-11" value="" style="edgeStyle=orthogonalEdgeStyle;rounded=1;orthogonalLoop=1;jettySize=auto;html=1;labelBackgroundColor=none;strokeColor=#FFFFFF;fontColor=#FFFFFF;" parent="WIyWlLk6GJQsqaUBKTNV-1" source="wWsB43tYdhF1dsKAu8T7-8" target="wWsB43tYdhF1dsKAu8T7-10" edge="1">
          <mxGeometry relative="1" as="geometry" />
        </mxCell>
        <mxCell id="wWsB43tYdhF1dsKAu8T7-8" value="&lt;span style=&quot;font-size: 18px;&quot;&gt;Akhir pekan&lt;/span&gt;" style="whiteSpace=wrap;html=1;dashed=0;rounded=1;labelBackgroundColor=none;fillColor=#F45B69;strokeColor=#FFFFFF;fontColor=#FFFFFF;" parent="WIyWlLk6GJQsqaUBKTNV-1" vertex="1">
          <mxGeometry x="353.5" y="173" width="120" height="60" as="geometry" />
        </mxCell>
        <mxCell id="K_AMTAFTZP05vmwezGBS-0" style="edgeStyle=orthogonalEdgeStyle;rounded=0;orthogonalLoop=1;jettySize=auto;html=1;strokeColor=#FFFFFF;" edge="1" parent="WIyWlLk6GJQsqaUBKTNV-1">
          <mxGeometry relative="1" as="geometry">
            <mxPoint x="353.5" y="197" as="targetPoint" />
            <mxPoint x="368.9642857142858" y="347" as="sourcePoint" />
            <Array as="points">
              <mxPoint x="281" y="347" />
              <mxPoint x="281" y="197" />
            </Array>
          </mxGeometry>
        </mxCell>
        <mxCell id="K_AMTAFTZP05vmwezGBS-2" value="" style="edgeStyle=orthogonalEdgeStyle;rounded=0;orthogonalLoop=1;jettySize=auto;html=1;strokeColor=#FFFFFF;" edge="1" parent="WIyWlLk6GJQsqaUBKTNV-1" source="wWsB43tYdhF1dsKAu8T7-10" target="K_AMTAFTZP05vmwezGBS-1">
          <mxGeometry relative="1" as="geometry" />
        </mxCell>
        <mxCell id="wWsB43tYdhF1dsKAu8T7-10" value="&lt;span style=&quot;font-size: 18px;&quot;&gt;Pengen &lt;br&gt;Liburan?&lt;/span&gt;" style="rhombus;whiteSpace=wrap;html=1;dashed=0;rounded=1;labelBackgroundColor=none;fillColor=#F45B69;strokeColor=#FFFFFF;fontColor=#FFFFFF;" parent="WIyWlLk6GJQsqaUBKTNV-1" vertex="1">
          <mxGeometry x="341" y="277" width="145" height="140" as="geometry" />
        </mxCell>
        <mxCell id="wWsB43tYdhF1dsKAu8T7-31" value="&lt;font style=&quot;font-size: 18px;&quot;&gt;Tidak&lt;/font&gt;" style="text;html=1;strokeColor=none;fillColor=none;align=center;verticalAlign=middle;whiteSpace=wrap;rounded=1;labelBackgroundColor=none;fontColor=#FFFFFF;" parent="WIyWlLk6GJQsqaUBKTNV-1" vertex="1">
          <mxGeometry x="277.5" y="300" width="60" height="30" as="geometry" />
        </mxCell>
        <mxCell id="wWsB43tYdhF1dsKAu8T7-33" value="&lt;font style=&quot;font-size: 18px;&quot;&gt;End&lt;/font&gt;" style="html=1;dashed=0;whiteSpace=wrap;shape=mxgraph.dfd.start;rounded=1;labelBackgroundColor=none;fillColor=#F45B69;strokeColor=#FFFFFF;fontColor=#FFFFFF;" parent="WIyWlLk6GJQsqaUBKTNV-1" vertex="1">
          <mxGeometry x="369" y="1090" width="90" height="40" as="geometry" />
        </mxCell>
        <mxCell id="wWsB43tYdhF1dsKAu8T7-49" value="Apakah saya harus Healing?" style="text;strokeColor=none;fillColor=none;html=1;fontSize=24;fontStyle=1;verticalAlign=middle;align=center;fontColor=#FF66B3;" parent="WIyWlLk6GJQsqaUBKTNV-1" vertex="1">
          <mxGeometry x="169" y="10" width="490" height="50" as="geometry" />
        </mxCell>
        <mxCell id="K_AMTAFTZP05vmwezGBS-7" value="" style="edgeStyle=orthogonalEdgeStyle;rounded=0;orthogonalLoop=1;jettySize=auto;html=1;strokeColor=#FFFFFF;" edge="1" parent="WIyWlLk6GJQsqaUBKTNV-1" source="K_AMTAFTZP05vmwezGBS-1" target="K_AMTAFTZP05vmwezGBS-6">
          <mxGeometry relative="1" as="geometry" />
        </mxCell>
        <mxCell id="K_AMTAFTZP05vmwezGBS-9" value="" style="edgeStyle=orthogonalEdgeStyle;rounded=0;orthogonalLoop=1;jettySize=auto;html=1;strokeColor=#FFFFFF;" edge="1" parent="WIyWlLk6GJQsqaUBKTNV-1" source="K_AMTAFTZP05vmwezGBS-1" target="K_AMTAFTZP05vmwezGBS-8">
          <mxGeometry relative="1" as="geometry" />
        </mxCell>
        <mxCell id="K_AMTAFTZP05vmwezGBS-1" value="&lt;span style=&quot;font-size: 18px;&quot;&gt;Cuaca aman?&lt;/span&gt;" style="rhombus;whiteSpace=wrap;html=1;dashed=0;rounded=1;labelBackgroundColor=none;fillColor=#F45B69;strokeColor=#FFFFFF;fontColor=#FFFFFF;" vertex="1" parent="WIyWlLk6GJQsqaUBKTNV-1">
          <mxGeometry x="341" y="465" width="145" height="140" as="geometry" />
        </mxCell>
        <mxCell id="K_AMTAFTZP05vmwezGBS-3" value="&lt;font style=&quot;font-size: 18px;&quot;&gt;Iya&lt;/font&gt;" style="text;html=1;strokeColor=none;fillColor=none;align=center;verticalAlign=middle;whiteSpace=wrap;rounded=1;labelBackgroundColor=none;fontColor=#FFFFFF;" vertex="1" parent="WIyWlLk6GJQsqaUBKTNV-1">
          <mxGeometry x="398.5" y="430" width="60" height="30" as="geometry" />
        </mxCell>
        <mxCell id="K_AMTAFTZP05vmwezGBS-4" value="&lt;span style=&quot;font-size: 18px;&quot;&gt;Tidur&lt;/span&gt;" style="shape=parallelogram;perimeter=parallelogramPerimeter;whiteSpace=wrap;html=1;fixedSize=1;rounded=1;labelBackgroundColor=none;fillColor=#F45B69;strokeColor=#FFFFFF;fontColor=#FFFFFF;" vertex="1" parent="WIyWlLk6GJQsqaUBKTNV-1">
          <mxGeometry x="40" y="360" width="135" height="60" as="geometry" />
        </mxCell>
        <mxCell id="K_AMTAFTZP05vmwezGBS-19" style="edgeStyle=orthogonalEdgeStyle;rounded=0;orthogonalLoop=1;jettySize=auto;html=1;strokeColor=#FFFFFF;" edge="1" parent="WIyWlLk6GJQsqaUBKTNV-1">
          <mxGeometry relative="1" as="geometry">
            <mxPoint x="360" y="1105" as="targetPoint" />
            <mxPoint x="250" y="565" as="sourcePoint" />
            <Array as="points">
              <mxPoint x="250" y="1105" />
            </Array>
          </mxGeometry>
        </mxCell>
        <mxCell id="K_AMTAFTZP05vmwezGBS-6" value="&lt;span style=&quot;font-size: 18px;&quot;&gt;Tidur&lt;/span&gt;" style="whiteSpace=wrap;html=1;dashed=0;rounded=1;labelBackgroundColor=none;fillColor=#F45B69;strokeColor=#FFFFFF;fontColor=#FFFFFF;" vertex="1" parent="WIyWlLk6GJQsqaUBKTNV-1">
          <mxGeometry x="169" y="505" width="120" height="60" as="geometry" />
        </mxCell>
        <mxCell id="K_AMTAFTZP05vmwezGBS-11" value="" style="edgeStyle=orthogonalEdgeStyle;rounded=0;orthogonalLoop=1;jettySize=auto;html=1;strokeColor=#FFFFFF;" edge="1" parent="WIyWlLk6GJQsqaUBKTNV-1" source="K_AMTAFTZP05vmwezGBS-8" target="K_AMTAFTZP05vmwezGBS-10">
          <mxGeometry relative="1" as="geometry" />
        </mxCell>
        <mxCell id="K_AMTAFTZP05vmwezGBS-14" value="" style="edgeStyle=orthogonalEdgeStyle;rounded=0;orthogonalLoop=1;jettySize=auto;html=1;strokeColor=#FFFFFF;" edge="1" parent="WIyWlLk6GJQsqaUBKTNV-1" source="K_AMTAFTZP05vmwezGBS-8" target="K_AMTAFTZP05vmwezGBS-12">
          <mxGeometry relative="1" as="geometry" />
        </mxCell>
        <mxCell id="K_AMTAFTZP05vmwezGBS-8" value="&lt;span style=&quot;font-size: 18px;&quot;&gt;Jadwal aman?&lt;/span&gt;" style="rhombus;whiteSpace=wrap;html=1;dashed=0;rounded=1;labelBackgroundColor=none;fillColor=#F45B69;strokeColor=#FFFFFF;fontColor=#FFFFFF;" vertex="1" parent="WIyWlLk6GJQsqaUBKTNV-1">
          <mxGeometry x="341.5" y="649" width="145" height="140" as="geometry" />
        </mxCell>
        <mxCell id="K_AMTAFTZP05vmwezGBS-20" style="edgeStyle=orthogonalEdgeStyle;rounded=0;orthogonalLoop=1;jettySize=auto;html=1;strokeColor=#FFFFFF;" edge="1" parent="WIyWlLk6GJQsqaUBKTNV-1" source="K_AMTAFTZP05vmwezGBS-10" target="wWsB43tYdhF1dsKAu8T7-33">
          <mxGeometry relative="1" as="geometry">
            <mxPoint x="220" y="1110" as="targetPoint" />
            <Array as="points">
              <mxPoint x="230" y="1120" />
            </Array>
          </mxGeometry>
        </mxCell>
        <mxCell id="K_AMTAFTZP05vmwezGBS-10" value="&lt;span style=&quot;font-size: 18px;&quot;&gt;Ada kegiatan lain&lt;/span&gt;" style="whiteSpace=wrap;html=1;dashed=0;rounded=1;labelBackgroundColor=none;fillColor=#F45B69;strokeColor=#FFFFFF;fontColor=#FFFFFF;" vertex="1" parent="WIyWlLk6GJQsqaUBKTNV-1">
          <mxGeometry x="169" y="689" width="120" height="60" as="geometry" />
        </mxCell>
        <mxCell id="K_AMTAFTZP05vmwezGBS-15" value="" style="edgeStyle=orthogonalEdgeStyle;rounded=0;orthogonalLoop=1;jettySize=auto;html=1;strokeColor=#FFFFFF;" edge="1" parent="WIyWlLk6GJQsqaUBKTNV-1" source="K_AMTAFTZP05vmwezGBS-12" target="K_AMTAFTZP05vmwezGBS-13">
          <mxGeometry relative="1" as="geometry" />
        </mxCell>
        <mxCell id="K_AMTAFTZP05vmwezGBS-18" value="" style="edgeStyle=orthogonalEdgeStyle;rounded=0;orthogonalLoop=1;jettySize=auto;html=1;strokeColor=#FFFFFF;" edge="1" parent="WIyWlLk6GJQsqaUBKTNV-1" source="K_AMTAFTZP05vmwezGBS-12" target="K_AMTAFTZP05vmwezGBS-17">
          <mxGeometry relative="1" as="geometry" />
        </mxCell>
        <mxCell id="K_AMTAFTZP05vmwezGBS-12" value="&lt;span style=&quot;font-size: 18px;&quot;&gt;Mood aman?&lt;/span&gt;" style="rhombus;whiteSpace=wrap;html=1;dashed=0;rounded=1;labelBackgroundColor=none;fillColor=#F45B69;strokeColor=#FFFFFF;fontColor=#FFFFFF;" vertex="1" parent="WIyWlLk6GJQsqaUBKTNV-1">
          <mxGeometry x="341" y="827" width="145" height="140" as="geometry" />
        </mxCell>
        <mxCell id="K_AMTAFTZP05vmwezGBS-16" value="" style="edgeStyle=orthogonalEdgeStyle;rounded=0;orthogonalLoop=1;jettySize=auto;html=1;strokeColor=#FFFFFF;" edge="1" parent="WIyWlLk6GJQsqaUBKTNV-1" source="K_AMTAFTZP05vmwezGBS-13" target="wWsB43tYdhF1dsKAu8T7-33">
          <mxGeometry relative="1" as="geometry" />
        </mxCell>
        <mxCell id="K_AMTAFTZP05vmwezGBS-13" value="&lt;span style=&quot;font-size: 18px;&quot;&gt;Gas Liburan&lt;/span&gt;" style="whiteSpace=wrap;html=1;dashed=0;rounded=1;labelBackgroundColor=none;fillColor=#F45B69;strokeColor=#FFFFFF;fontColor=#FFFFFF;" vertex="1" parent="WIyWlLk6GJQsqaUBKTNV-1">
          <mxGeometry x="354" y="1000" width="120" height="47" as="geometry" />
        </mxCell>
        <mxCell id="K_AMTAFTZP05vmwezGBS-21" style="edgeStyle=orthogonalEdgeStyle;rounded=0;orthogonalLoop=1;jettySize=auto;html=1;strokeColor=#FFFFFF;" edge="1" parent="WIyWlLk6GJQsqaUBKTNV-1" source="K_AMTAFTZP05vmwezGBS-17" target="wWsB43tYdhF1dsKAu8T7-33">
          <mxGeometry relative="1" as="geometry">
            <mxPoint x="210" y="1130" as="targetPoint" />
            <Array as="points">
              <mxPoint x="210" y="1140" />
              <mxPoint x="420" y="1140" />
            </Array>
          </mxGeometry>
        </mxCell>
        <mxCell id="K_AMTAFTZP05vmwezGBS-17" value="&lt;span style=&quot;font-size: 18px;&quot;&gt;Tidur Part 2&lt;/span&gt;" style="whiteSpace=wrap;html=1;dashed=0;rounded=1;labelBackgroundColor=none;fillColor=#F45B69;strokeColor=#FFFFFF;fontColor=#FFFFFF;" vertex="1" parent="WIyWlLk6GJQsqaUBKTNV-1">
          <mxGeometry x="169" y="867" width="120" height="60" as="geometry" />
        </mxCell>
      </root>
    </mxGraphModel>
  </diagram>
</mxfile>
